<?xml version="1.0" standalone="no"?>
<svg xmlns:xlink="http://www.w3.org/1999/xlink" id="wave" style="transform:rotate(180deg); transition: 0.3s" viewBox="0 0 1440 100" version="1.1" xmlns="http://www.w3.org/2000/svg"><defs><linearGradient id="sw-gradient-0" x1="0" x2="0" y1="1" y2="0"><stop stop-color="rgba(255, 249, 234, 1)" offset="0%"/><stop stop-color="rgba(255, 249, 234, 1)" offset="100%"/></linearGradient></defs><path style="transform:translate(0, 0px); opacity:1" fill="url(#sw-gradient-0)" d="M0,70L48,58.3C96,47,192,23,288,25C384,27,480,53,576,58.3C672,63,768,47,864,48.3C960,50,1056,70,1152,65C1248,60,1344,30,1440,20C1536,10,1632,20,1728,20C1824,20,1920,10,2016,10C2112,10,2208,20,2304,21.7C2400,23,2496,17,2592,16.7C2688,17,2784,23,2880,25C2976,27,3072,23,3168,23.3C3264,23,3360,27,3456,38.3C3552,50,3648,70,3744,66.7C3840,63,3936,37,4032,25C4128,13,4224,17,4320,25C4416,33,4512,47,4608,53.3C4704,60,4800,60,4896,58.3C4992,57,5088,53,5184,45C5280,37,5376,23,5472,26.7C5568,30,5664,50,5760,58.3C5856,67,5952,63,6048,56.7C6144,50,6240,40,6336,35C6432,30,6528,30,6624,35C6720,40,6816,50,6864,55L6912,60L6912,100L6864,100C6816,100,6720,100,6624,100C6528,100,6432,100,6336,100C6240,100,6144,100,6048,100C5952,100,5856,100,5760,100C5664,100,5568,100,5472,100C5376,100,5280,100,5184,100C5088,100,4992,100,4896,100C4800,100,4704,100,4608,100C4512,100,4416,100,4320,100C4224,100,4128,100,4032,100C3936,100,3840,100,3744,100C3648,100,3552,100,3456,100C3360,100,3264,100,3168,100C3072,100,2976,100,2880,100C2784,100,2688,100,2592,100C2496,100,2400,100,2304,100C2208,100,2112,100,2016,100C1920,100,1824,100,1728,100C1632,100,1536,100,1440,100C1344,100,1248,100,1152,100C1056,100,960,100,864,100C768,100,672,100,576,100C480,100,384,100,288,100C192,100,96,100,48,100L0,100Z"/></svg>